<?xml version="1.0" standalone="no"?>
<!DOCTYPE svg PUBLIC "-//W3C//DTD SVG 20010904//EN"
 "http://www.w3.org/TR/2001/REC-SVG-20010904/DTD/svg10.dtd">
<svg version="1.0" xmlns="http://www.w3.org/2000/svg"
 width="139.000000pt" height="164.000000pt" viewBox="0 0 139.000000 164.000000"
 preserveAspectRatio="xMidYMid meet">

<g transform="translate(0.000000,164.000000) scale(0.100000,-0.100000)"
fill="#000000" stroke="none">
<path d="M568 1394 c-146 -35 -288 -149 -352 -283 -104 -217 -60 -443 121
-624 126 -126 222 -174 368 -184 162 -11 303 41 411 152 110 112 160 247 151
405 -9 150 -56 245 -184 373 -150 150 -330 206 -515 161z m257 -16 c37 -9 155
-64 155 -72 0 -2 -28 8 -62 21 -73 30 -187 40 -273 24 -33 -6 -96 -28 -140
-50 -256 -126 -368 -446 -243 -695 11 -23 16 -36 10 -31 -17 17 -62 112 -77
163 -51 181 -2 367 134 503 133 133 315 183 496 137z m56 -118 c76 -26 131
-60 159 -100 12 -16 26 -28 31 -25 12 8 77 -96 101 -163 27 -78 27 -206 -1
-284 -66 -189 -233 -309 -428 -310 -115 0 -216 37 -298 108 l-30 26 32 -21
c17 -12 35 -21 39 -21 5 0 -15 16 -43 35 -67 45 -99 88 -129 172 -40 115 -30
254 28 367 27 53 112 142 166 173 109 64 259 81 373 43z"/>
<path d="M1070 1121 c0 -5 5 -13 10 -16 6 -3 10 -2 10 4 0 5 -4 13 -10 16 -5
3 -10 2 -10 -4z"/>
<path d="M1106 1060 c40 -142 43 -192 19 -285 -65 -247 -307 -393 -549 -330
-74 19 -86 12 -15 -9 74 -22 202 -21 271 3 141 48 252 161 301 305 30 88 18
258 -23 324 -9 14 -10 13 -4 -8z"/>
</g>
</svg>
